<svg viewBox="0 0 32 32" xmlns="http://www.w3.org/2000/svg">
  <g fill="none" fill-rule="evenodd" stroke-linecap="round" stroke-linejoin="round" stroke-width="2.29">
    <g stroke="currentColor">
      <path d="M4.126 5.19A2.126 2.126 0 0 0 2 7.316v20.201a2.126 2.126 0 0 0 2.126 2.127h23.391a2.126 2.126 0 0 0 2.127-2.127v-20.2a2.127 2.127 0 0 0-2.127-2.127h-4.253M8.379 2v6.379M23.264 2v6.379M8.379 5.19h10.633"/>
    </g>
    <g class="stroke-accent" stroke="currentColor">
      <path d="M8.38 15.29a.532.532 0 1 1 0-1.063M8.38 15.29a.532.532 0 1 0 0-1.063M15.822 15.29a.532.532 0 1 1 0-1.063M15.822 15.29a.532.532 0 1 0 0-1.063M8.38 22.733a.532.532 0 1 1 0-1.064M8.38 22.733a.532.532 0 1 0 0-1.064M15.822 22.733a.532.532 0 1 1 0-1.064M15.822 22.733a.532.532 0 1 0 0-1.064M23.264 15.29a.532.532 0 1 1 0-1.063M23.264 15.29a.532.532 0 1 0 0-1.063"/>
    </g>
  </g>
</svg>
