<svg viewBox="0 0 32 32" xmlns="http://www.w3.org/2000/svg">
  <g fill="none" fill-rule="evenodd">
    <path d="M4.06 1c-.48.05-.85.15-1.26.37-.32.16-.57.35-.83.61-.51.51-.81 1.11-.94 1.87C1 3.98 1 4.38 1 13.04c0 9.96-.01 9.15.07 9.35.11.26.32.49.57.61.18.09.25.1.49.1.18 0 .23 0 .31-.03.41-.12.71-.44.81-.86.02-.08.02-.64.03-9.09V4.13l.04-.09c.06-.19.14-.31.27-.44s.26-.21.44-.27l.09-.03h9c8.45-.01 9.01-.01 9.09-.04.29-.07.54-.25.71-.49.14-.21.19-.41.18-.68 0-.21-.04-.32-.12-.47-.15-.28-.42-.5-.72-.59-.07-.02-.45-.02-9.12-.02C8.18 1 4.09 1 4.06 1Zm5.6 5.6a3.4 3.4 0 0 0-2.09.97c-.53.53-.85 1.17-.96 1.94-.02.17-.02 18.32 0 18.49.09.61.3 1.12.67 1.61.13.17.39.44.55.57.49.39 1.04.62 1.67.72.17.02 18.32.02 18.49 0 .42-.06.76-.17 1.12-.36.31-.16.56-.35.81-.6.53-.53.85-1.17.96-1.94.02-.17.02-18.32 0-18.49-.09-.63-.33-1.19-.72-1.67a4.72 4.72 0 0 0-.5-.5c-.47-.38-.98-.6-1.62-.71-.13-.02-.53-.02-9.25-.02H9.63m.06 2.31c-.4.09-.72.41-.81.81-.03.13-.03 17.94 0 18.07.09.4.41.73.81.81.13.03 17.94.03 18.07 0 .38-.08.68-.36.8-.74l.03-.1V9.75l-.03-.1c-.12-.38-.42-.66-.8-.74-.12-.03-17.96-.03-18.08 0" fill="currentColor"/>
    <path d="M17.61 19.91h-1.72c-1.91 0-1.78 0-1.98-.09-.25-.1-.46-.31-.59-.55-.14-.29-.15-.67-.02-.97.12-.26.37-.5.64-.6.2-.08.15-.08 2-.08h1.67v-1.68c0-1.44.01-1.69.02-1.79.09-.48.5-.87.98-.93a1.146 1.146 0 0 1 .61.09c.25.11.49.35.6.6.09.21.08.07.09 1.98v1.73h3.46l.1.03c.37.11.68.41.79.77.09.26.06.61-.06.85-.15.3-.41.52-.74.61-.09.03-.1.03-1.82.03h-1.73v1.73c-.01 1.72-.01 1.73-.03 1.83-.06.18-.13.31-.25.45-.14.16-.34.29-.53.35s-.48.06-.67 0c-.33-.09-.63-.37-.74-.69-.08-.19-.08-.16-.08-1.99v-1.68Z" class="stroke-accent" fill="currentColor" fill-rule="nonzero"/>
  </g>
</svg>
