<svg viewBox="0 0 32 32" xmlns="http://www.w3.org/2000/svg">
  <g fill="none" fill-rule="evenodd">
    <path d="M27.39 27.517a2.127 2.127 0 0 1-2.126 2.127H6.126A2.127 2.127 0 0 1 4 27.517V4.127A2.126 2.126 0 0 1 6.126 2h13.822l7.443 7.442v18.075Z" stroke="currentColor" stroke-width="2.29" stroke-linecap="round" stroke-linejoin="round"/>
    <path d="M9.313 19.792c-.072 0-.12-.048-.12-.12v-5.36c0-.072.048-.12.12-.12h1.72c1.352 0 1.992.752 1.992 1.84s-.64 1.832-1.992 1.832h-.576v1.808c0 .072-.048.12-.12.12H9.313Zm1.144-3.048h.544c.424 0 .816-.136.816-.712 0-.584-.392-.72-.816-.72h-.544v1.432Zm3.505 3.048c-.072 0-.12-.048-.12-.12v-5.36c0-.072.048-.12.12-.12h1.736c1.864 0 2.864 1.232 2.864 2.8 0 1.568-1 2.8-2.864 2.8h-1.736Zm1.144-1.12h.576c1.048 0 1.592-.592 1.592-1.68s-.544-1.68-1.592-1.68h-.576v3.36Zm4.426 1.12c-.072 0-.12-.048-.12-.12v-5.36c0-.072.048-.12.12-.12h2.856c.072 0 .12.048.12.12v.88c0 .072-.048.12-.12.12h-1.712v1.056h1.608c.072 0 .12.048.12.12v.88c0 .072-.048.12-.12.12h-1.608v2.184c0 .072-.048.12-.12.12h-1.024Z" class="stroke-accent" fill="currentColor" fill-rule="nonzero"/>
  </g>
</svg>
