<svg viewBox="0 0 32 32" xmlns="http://www.w3.org/2000/svg">
  <g fill="none" fill-rule="evenodd">
    <path d="M14.969 30.93c-.66 0-1.3-.2-1.85-.58-.54-.37-.96-.9-1.2-1.52l-.77-1.98-2.41-1.38-2.11.32a3.265 3.265 0 0 1-3.29-1.6l-.85-1.49c-.33-.56-.48-1.21-.44-1.88.05-.66.29-1.29.71-1.81l1.3-1.66v-2.77l-1.34-1.66c-.42-.53-.66-1.15-.71-1.81-.05-.66.11-1.32.44-1.89l.84-1.48c.33-.57.81-1.02 1.4-1.3.58-.29 1.24-.39 1.88-.3l2.14.33 2.45-1.39.77-1.98a3.287 3.287 0 0 1 3.04-2.1h1.75c.67 0 1.3.2 1.85.58.55.38.96.9 1.2 1.52l.77 1.98 2.41 1.38 2.11-.32a3.265 3.265 0 0 1 3.29 1.6l.85 1.49c.33.56.48 1.21.44 1.88-.05.67-.29 1.29-.7 1.81l-1.3 1.66v2.77l1.34 1.66c.42.53.66 1.15.71 1.81.05.67-.11 1.32-.45 1.89l-.84 1.47c-.33.57-.81 1.02-1.39 1.3-.58.29-1.24.39-1.88.3l-2.13-.33-2.41 1.38-.77 1.98c-.24.62-.65 1.14-1.2 1.52-.54.38-1.18.58-1.85.58h-1.79l-.01.02Zm-6-7.8c.2 0 .4.05.57.15l3.1 1.79c.23.13.4.33.5.58l.91 2.36c.07.19.2.34.36.46.17.11.36.17.55.17h1.78c.2 0 .39-.06.55-.17.17-.11.29-.27.36-.46l.92-2.36c.09-.24.27-.45.5-.58l3.1-1.79c.23-.13.49-.18.74-.14l2.51.38c.17.02.37 0 .54-.09.17-.09.32-.22.42-.39l.85-1.48a1 1 0 0 0 .14-.58.95.95 0 0 0-.21-.54l-1.59-1.97c-.16-.2-.25-.46-.25-.72v-3.57c0-.26.09-.51.24-.71l1.55-1.98c.13-.16.2-.35.22-.55.01-.2-.03-.39-.13-.56l-.86-1.5a.915.915 0 0 0-.42-.38.994.994 0 0 0-.56-.09l-2.49.38c-.26.04-.52-.01-.74-.14l-3.1-1.79c-.23-.13-.4-.33-.5-.58l-.92-2.36c-.07-.19-.2-.34-.36-.46a.99.99 0 0 0-.55-.17h-1.74a.967.967 0 0 0-.91.63l-.91 2.36c-.1.25-.27.45-.5.58l-3.15 1.79c-.22.13-.48.17-.74.14l-2.51-.38c-.18-.02-.37 0-.54.09a.99.99 0 0 0-.42.39l-.85 1.48a1 1 0 0 0-.14.58c.01.2.09.39.21.54l1.59 1.97c.16.2.25.46.25.72v3.57c0 .26-.09.5-.24.71l-1.55 1.98c-.13.16-.2.35-.22.55-.01.2.03.39.13.56l.86 1.5c.09.16.24.3.41.38.17.08.37.12.56.09l2.49-.38c.06 0 .12-.01.17-.01h.02Z" fill="currentColor" fill-rule="nonzero"/>
    <path d="M11.59 15.97c0 .84.25 1.66.72 2.36s1.13 1.24 1.91 1.57c.78.32 1.63.41 2.46.24.83-.17 1.58-.57 2.18-1.16.59-.59 1-1.35 1.16-2.18.16-.82.08-1.68-.24-2.46s-.87-1.44-1.57-1.91a4.23 4.23 0 0 0-2.36-.72c-1.13 0-2.21.45-3.01 1.25-.8.8-1.25 1.88-1.25 3.01Z" class="stroke-accent" stroke="currentColor" stroke-width="2.29" stroke-linecap="round" stroke-linejoin="round"/>
  </g>
</svg>
