<svg viewBox="0 0 32 32" xmlns="http://www.w3.org/2000/svg">
  <g fill-rule="nonzero" fill="none">
    <path d="M14.367 19.555c-.78.77-1.23 1.22-1.28 1.25-.33.21-.76.24-1.1.08-.05-.02-.1-.05-.15-.08-.25-.17-.43-.42-.5-.71-.03-.13-.03-.38 0-.51s.09-.27.16-.37c.04-.07.56-.6 2.27-2.3 2.33-2.34 2.29-2.3 2.48-2.38.11-.05.22-.07.32-.09.12-.01.16-.01.28 0 .2.03.36.09.52.2.04.03 1.07 1.05 2.28 2.26 1.72 1.73 2.22 2.23 2.28 2.31.13.2.19.41.17.68-.01.3-.1.51-.31.74-.15.16-.33.26-.53.32-.09.02-.14.02-.29.03-.2 0-.28-.02-.44-.08-.21-.09-.22-.1-1.48-1.36l-1.19-1.18v5.08c0 4.8 0 5.08-.03 5.16-.09.34-.28.59-.57.75-.19.1-.38.14-.61.13-.3-.01-.51-.11-.73-.32-.16-.15-.25-.3-.32-.51l-.03-.09v-10.2l-1.2 1.19Z" class="fill-accent" fill="currentColor"/>
    <path d="M3.347 17.495c.15 1.1.62 2.13 1.35 2.95.13.15.45.47.6.6.81.67 1.79 1.11 2.83 1.26.29.05.49.06.84.05.38 0 .52 0 .62.01.03.01.06.01.09.02.19.05.34.14.5.29.17.16.27.34.32.55.04.16.04.41 0 .55-.08.33-.32.62-.63.77-.2.09-.46.12-1.09.11-.43 0-.69-.03-1.05-.09a8.085 8.085 0 0 1-2.93-1.07c-.99-.6-1.87-1.46-2.5-2.41a8.045 8.045 0 0 1-1.22-3.26c-.2-1.43-.01-2.86.54-4.18a7.954 7.954 0 0 1 6.2-4.78c.1-.01.19-.03.2-.03 0-.01.03-.08.07-.16.24-.6.67-1.35 1.11-1.93a9.366 9.366 0 0 1 6.81-3.73c.27-.02.98-.02 1.26 0 2.18.14 4.17.99 5.79 2.48 1.23 1.12 2.17 2.65 2.64 4.27.11.38.23.91.26 1.19.01.04.02.08.02.09.01.01.1.05.21.08 1.32.46 2.49 1.31 3.32 2.44.59.79.99 1.68 1.2 2.62a6.953 6.953 0 0 1-5.29 8.31c-.58.13-1.37.19-1.67.14-.3-.05-.58-.24-.76-.51-.23-.36-.23-.86 0-1.22.06-.09.13-.17.2-.24.08-.07.16-.13.25-.17.19-.1.27-.12.64-.14a4.651 4.651 0 0 0 4.03-2.61c.34-.69.49-1.38.47-2.15-.01-.31-.02-.48-.07-.75a4.676 4.676 0 0 0-3.3-3.62c-.34-.09-.44-.13-.56-.19-.3-.15-.55-.4-.71-.7-.11-.2-.16-.39-.2-.72-.05-.39-.09-.65-.18-1a7.098 7.098 0 0 0-1.42-2.77 7.123 7.123 0 0 0-4.58-2.5c-.43-.05-1.01-.06-1.43-.03-1.73.15-3.29.89-4.49 2.11-.71.74-1.22 1.54-1.59 2.52-.08.23-.14.36-.24.49-.17.24-.45.45-.74.57-.15.05-.32.09-.56.11-1.22.09-2.38.58-3.3 1.38-.26.23-.59.59-.81.88-.53.71-.91 1.62-1.05 2.54-.07.5-.07 1.08 0 1.59v-.01Z" fill="currentColor"/>
  </g>
</svg>
