<svg viewBox="0 0 32 32" xmlns="http://www.w3.org/2000/svg">
  <g stroke-width="2.29" stroke="currentColor" fill="none" fill-rule="evenodd" stroke-linecap="round" stroke-linejoin="round">
    <path d="M23.264 6.253V4.126c0-1.174.952-2.126 2.127-2.126h2.126c1.175 0 2.127.952 2.127 2.126v2.127a2.126 2.126 0 0 1-2.127 2.126h-2.126a2.126 2.126 0 0 1-2.127-2.126ZM23.264 16.885V14.76c0-1.175.952-2.127 2.127-2.127h2.126c1.175 0 2.127.952 2.127 2.127v2.126a2.126 2.126 0 0 1-2.127 2.126h-2.126a2.126 2.126 0 0 1-2.127-2.126ZM23.264 27.517v-2.126c0-1.175.952-2.127 2.127-2.127h2.126c1.175 0 2.127.952 2.127 2.127v2.126a2.126 2.126 0 0 1-2.127 2.127h-2.126a2.126 2.126 0 0 1-2.127-2.127ZM12.632 6.253V4.126c0-1.174.952-2.126 2.127-2.126h2.126c1.174 0 2.126.952 2.126 2.126v2.127a2.126 2.126 0 0 1-2.126 2.126h-2.126a2.126 2.126 0 0 1-2.127-2.126Z"/>
    <path d="M12.632 16.885V14.76c0-1.175.952-2.127 2.127-2.127h2.126c1.174 0 2.126.952 2.126 2.127v2.126a2.126 2.126 0 0 1-2.126 2.126h-2.126a2.126 2.126 0 0 1-2.127-2.126Z" class="stroke-accent"/>
    <path d="M12.632 27.517v-2.126c0-1.175.952-2.127 2.127-2.127h2.126c1.174 0 2.126.952 2.126 2.127v2.126a2.126 2.126 0 0 1-2.126 2.127h-2.126a2.126 2.126 0 0 1-2.127-2.127ZM2 6.253V4.126C2 2.952 2.952 2 4.126 2h2.127c1.174 0 2.126.952 2.126 2.126v2.127a2.126 2.126 0 0 1-2.126 2.126H4.126A2.126 2.126 0 0 1 2 6.253ZM2 16.885V14.76c0-1.175.952-2.127 2.126-2.127h2.127c1.174 0 2.126.952 2.126 2.127v2.126a2.126 2.126 0 0 1-2.126 2.126H4.126A2.126 2.126 0 0 1 2 16.885ZM2 27.517v-2.126c0-1.175.952-2.127 2.126-2.127h2.127c1.174 0 2.126.952 2.126 2.127v2.126a2.126 2.126 0 0 1-2.126 2.127H4.126A2.126 2.126 0 0 1 2 27.517Z"/>
  </g>
</svg>
