<svg viewBox="0 0 32 32" xmlns="http://www.w3.org/2000/svg">
  <g fill="none" fill-rule="evenodd">
    <path stroke="currentColor" stroke-width="2.29" stroke-linecap="round" stroke-linejoin="round" d="M2 17.822 15.822 4l13.822 13.822"/>
    <path stroke="currentColor" stroke-width="2.29" stroke-linecap="round" stroke-linejoin="round" d="M6.253 13.569v13.822h19.138V13.569"/>
    <path d="m14.035 14.26.382-.987a.888.888 0 0 1 .827-.568h.729a.889.889 0 0 1 .826.568l.382.987 1.298.747 1.049-.16a.888.888 0 0 1 .889.435l.355.622a.889.889 0 0 1-.07 1.005l-.65.826v1.494l.667.826a.89.89 0 0 1 .071 1.005l-.355.622a.889.889 0 0 1-.89.435l-1.048-.16-1.298.747-.382.987a.89.89 0 0 1-.827.569h-.746a.889.889 0 0 1-.827-.57l-.382-.986-1.298-.747-1.049.16a.89.89 0 0 1-.889-.435l-.355-.622a.889.889 0 0 1 .07-1.005l.65-.826v-1.494l-.667-.826a.889.889 0 0 1-.07-1.005l.355-.622a.888.888 0 0 1 .888-.435l1.05.16 1.315-.747Zm-.205 4.222a1.778 1.778 0 1 0 3.556 0 1.778 1.778 0 0 0-3.556 0Z" class="fill-accent" fill="currentColor" fill-rule="nonzero"/>
  </g>
</svg>
