<svg viewBox="0 0 32 32" xmlns="http://www.w3.org/2000/svg">
  <g stroke-width="2.29" fill="none" fill-rule="evenodd" stroke-linecap="round" stroke-linejoin="round">
    <path d="M4.126 2h23.391a2.126 2.126 0 0 1 2.127 2.126v21.265a4.253 4.253 0 0 1-4.253 4.253H6.253A4.253 4.253 0 0 1 2 25.39V4.126A2.126 2.126 0 0 1 4.126 2ZM2 15.822h27.644" stroke="currentColor"/>
    <path d="M15.822 22.733a.532.532 0 1 1 0-1.064M15.822 22.733a.532.532 0 1 0 0-1.064M15.822 8.91a.532.532 0 1 1 0-1.062M15.822 8.91a.532.532 0 1 0 0-1.062" class="stroke-accent" stroke="currentColor"/>
  </g>
</svg>
