<svg width="10" height="11" viewBox="0 0 10 11" fill="none" xmlns="http://www.w3.org/2000/svg">
<path fill-rule="evenodd" clip-rule="evenodd" d="M9.92187 1.00781C9.88281 0.929686 9.82422 0.851564 9.7461 0.773436C9.66797 0.695314 9.58333 0.636718 9.49219 0.597655C9.45312 0.545573 9.40104 0.516277 9.33594 0.509764C9.27083 0.503255 9.21224 0.5 9.16015 0.5H0.839844C0.579426 0.5 0.37435 0.578123 0.224609 0.734373C0.074869 0.890627 0 1.09245 0 1.33985C0 1.58724 0.074869 1.78906 0.224609 1.94531C0.37435 2.10156 0.579426 2.17969 0.839844 2.17969H7.16797L0.253906 9.09375C0.0846346 9.26302 0 9.45833 0 9.67969C0 9.90104 0.0846346 10.0964 0.253906 10.2656C0.332032 10.3438 0.416666 10.4023 0.507813 10.4414C0.598959 10.4805 0.709635 10.5 0.839844 10.5C0.957032 10.5 1.0612 10.4805 1.15234 10.4414C1.24349 10.4023 1.33464 10.3438 1.42578 10.2656L8.33985 3.33203V9.67969C8.33985 9.92708 8.41471 10.1257 8.56445 10.2754C8.7142 10.4251 8.91276 10.5 9.16015 10.5C9.42057 10.5 9.62565 10.4251 9.77539 10.2754C9.92513 10.1257 10 9.92708 10 9.67969V1.33985C10 1.30078 9.99675 1.24544 9.99024 1.17383C9.98372 1.10221 9.96094 1.04688 9.92187 1.00781Z" fill="white"/>
</svg>
