<svg width="190" height="35" fill="none" xmlns="http://www.w3.org/2000/svg"><path d="M40.445 0v20.174h4.206v-8.14h6.962V8.467h-6.962V3.833h9.036V0H40.445ZM66.543 20.173h-3.614l-.178-1.515c-.74 1.01-2.014 1.782-4.029 1.782-3.288 0-5.006-2.377-5.006-6.12V6.238h4.029v7.844c0 1.515.77 2.555 2.133 2.555 1.303 0 2.103-.802 2.666-1.634V6.238h4.029v13.935h-.03ZM81.562 12.184v8.022h-4.029V12.42c0-1.545-.859-2.614-2.28-2.614-1.275 0-2.104.802-2.637 1.634v8.765h-4.03V6.3h3.615l.178 1.545c.681-1.01 2.014-1.813 3.94-1.813 3.406-.03 5.243 2.377 5.243 6.15ZM122.532 10.014h-.326c-1.629 0-2.695.832-3.466 1.843v8.349h-4.029V6.3h3.585l.237 1.842c.681-1.13 2.044-2.11 3.999-2.11v3.981ZM144.839 0l-10.013 13.845L124.784 0h-.119v20.174h4.177v-8.497l5.866 8.764h.237l5.836-8.764v8.497h4.177V0h-.119ZM189.305 7.486l-1.511 2.852c-.8-.624-1.926-1.188-3.318-1.188-1.185 0-1.807.356-1.807 1.1 0 .712.533.98 2.488 1.455 2.933.713 4.355 2.02 4.355 4.13 0 2.763-2.311 4.605-6.043 4.605-2.104 0-4.148-.654-5.303-1.664l1.54-2.882a5.791 5.791 0 0 0 3.792 1.397c1.245 0 1.985-.387 1.985-1.189 0-.742-.503-1.129-2.34-1.574-3.051-.743-4.473-1.843-4.473-4.011 0-2.764 2.162-4.546 5.836-4.546 1.895.03 3.732.594 4.799 1.515Z" fill="#fff"/><path fill-rule="evenodd" clip-rule="evenodd" d="M93.945 20.174h3.615V0H93.5v7.517c-.651-.773-1.837-1.545-3.821-1.545-3.703 0-6.192 3.09-6.192 7.25s2.489 7.22 6.192 7.22c2.014 0 3.347-.832 4.058-1.813l.207 1.545Zm-3.287-3.21c-1.837 0-3.111-1.426-3.111-3.713 0-2.318 1.274-3.744 3.11-3.714 1.393 0 2.252.772 2.844 1.753v3.951c-.592.98-1.451 1.723-2.844 1.723ZM112.845 14.322v-1.278c0-3.803-2.103-7.042-6.458-7.071-4.147 0-6.991 3.12-6.991 7.279 0 4.16 2.785 7.19 7.139 7.19 2.607 0 4.444-.832 5.896-2.496l-2.755-2.258c-.623.832-1.689 1.426-3.052 1.426-1.985 0-3.081-1.01-3.17-2.792h9.391Zm-3.969-2.525h-5.421c.089-1.605 1.155-2.764 2.784-2.734 1.659 0 2.578 1.159 2.637 2.733ZM157.251 6.27l-.207 1.574c-.711-1.04-2.044-1.842-4.058-1.871-3.703 0-6.192 3.09-6.192 7.25 0 4.159 2.489 7.22 6.192 7.22 2.014 0 3.347-.833 4.058-1.813l.207 1.545h3.615V6.27h-3.615Zm-3.258 10.696c-1.837 0-3.111-1.426-3.111-3.714 0-2.318 1.274-3.744 3.111-3.714 1.392 0 2.251.772 2.843 1.753v3.952c-.592.98-1.451 1.723-2.843 1.723ZM170.909 20.471c3.703 0 6.191-3.06 6.191-7.22 0-4.189-2.488-7.249-6.191-7.249-2.015 0-3.348.832-4.088 1.842l-.178-1.575h-3.614v20.234h4.029v-7.577c.681.773 1.866 1.545 3.851 1.545Zm-3.851-5.288V11.26c.592-.98 1.481-1.753 2.873-1.783 1.837 0 3.111 1.426 3.111 3.744 0 2.287-1.274 3.714-3.111 3.714-1.392 0-2.281-.743-2.873-1.753Z" fill="#fff"/><path d="m9.725 5.231 2.192 4.19h10.635c3.584 0 5.332-3.536 5.332-3.536L30.965.032H11.058C10.02.002 8.125 2.17 9.725 5.23Z" fill="#28CC8B"/><path d="M16.182 22.016 7.325 5.23C5.636 2.05 7.74.565 8.984 0H7.74c-1.985 0-4 .98-4.8 2.525-.059.12-2.251 4.22-2.251 4.22-1.392 2.644-.474 5.11.978 7.843L12.479 35s3.348-6.358 3.822-7.25c.948-1.812 1.007-3.595-.119-5.734Z" fill="#17A4EA"/><path d="M24.892 11.53h-11.85l4.592 8.645c1.777-.208 3.407-1.366 4.236-2.941 0 .03 3.022-5.705 3.022-5.705Z" fill="#FFCC69"/></svg>