<svg width="13" height="15" viewBox="0 0 13 15" fill="none" xmlns="http://www.w3.org/2000/svg">
<path fill-rule="evenodd" clip-rule="evenodd" d="M10.25 5.7975V3.75C10.25 1.68187 8.56812 0 6.5 0C4.43187 0 2.75 1.68187 2.75 3.75V5.7975C1.66125 6.18625 0.875 7.21688 0.875 8.4375V12.1875C0.875 13.7381 2.13688 15 3.6875 15H9.3125C10.8631 15 12.125 13.7381 12.125 12.1875V8.4375C12.125 7.21688 11.3387 6.18625 10.25 5.7975ZM6.5 11.25C5.81 11.25 5.25 10.6906 5.25 10C5.25 9.30875 5.81 8.75 6.5 8.75C7.19125 8.75 7.75 9.30875 7.75 10C7.75 10.6906 7.19125 11.25 6.5 11.25ZM3.375 5.625H9.625V3.75C9.625 2.02688 8.22312 0.625 6.5 0.625C4.77688 0.625 3.375 2.02688 3.375 3.75V5.625Z" fill="#7F8FA4"/>
</svg>
