<?xml version="1.0" encoding="UTF-8"?>
<svg width="24px" height="24px" viewBox="0 0 24 24" version="1.1" xmlns="http://www.w3.org/2000/svg" xmlns:xlink="http://www.w3.org/1999/xlink">
    <title>fun/alert</title>
    <g id="fun/alert" stroke="none" stroke-width="1" fill="none" fill-rule="evenodd" stroke-linecap="round" stroke-linejoin="round">
        <g id="Group" transform="translate(2, 2)" stroke-width="2.41052705">
            <path d="M11.3698483,0.837366658 C11.2406896,0.585251399 11.0444779,0.373672898 10.8027922,0.22592584 C10.5611066,0.0781787828 10.2833154,0 10.0000506,0 C9.71668044,0 9.43888929,0.0781787828 9.19720363,0.22592584 C8.95551797,0.373672898 8.75930627,0.585251399 8.6301476,0.837366658 L0.164654664,17.7682152 C0.0465802706,18.0024253 -0.00963059323,18.2630563 0.00134842005,18.5252663 C0.0123274333,18.787371 0.0901384268,19.0423178 0.227391882,19.2658963 C0.364645338,19.48958 0.556783334,19.6744217 0.785563655,19.8028425 C1.01433345,19.9312633 1.27214552,19.9991579 1.53452605,20 L18.4654698,20 C18.7278924,19.9991579 18.9856835,19.9312633 19.2144217,19.8028425 C19.4432651,19.6744217 19.6353716,19.48958 19.7726355,19.2658963 C19.9097943,19.0423178 19.9876895,18.787371 19.9986369,18.5252663 C20.0096896,18.2630563 19.9533735,18.0024253 19.8352675,17.7682152 L11.3698483,0.837366658 Z" id="Path" stroke="#191E3C"></path>
            <line x1="9.99984003" y1="6.91623807" x2="9.99984003" y2="11.9185433" id="Path" stroke="#17A4EA"></line>
            <path d="M9.99984003,16.1540081 C9.7874177,16.1540081 9.61510088,15.9817979 9.61510088,15.7691668 C9.61510088,15.5566409 9.7874177,15.3844308 9.99984003,15.3844308" id="Path" stroke="#17A4EA"></path>
            <path d="M10.0000506,16.1540081 C10.2125781,16.1540081 10.384895,15.9817979 10.384895,15.7691668 C10.384895,15.5566409 10.2125781,15.3844308 10.0000506,15.3844308" id="Path" stroke="#17A4EA"></path>
        </g>
    </g>
</svg>