<?xml version="1.0" encoding="UTF-8"?>
<svg width="24px" height="24px" viewBox="0 0 24 24" version="1.1" xmlns="http://www.w3.org/2000/svg" xmlns:xlink="http://www.w3.org/1999/xlink">
    <title>fun/apps</title>
    <g id="fun/apps" stroke="none" stroke-width="1" fill="none" fill-rule="evenodd" stroke-linecap="round" stroke-linejoin="round">
        <g id="Group" transform="translate(2, 2)" stroke-width="2.54372584">
            <path d="M15.3845966,3.07691882 L15.3845966,1.53845387 C15.3845966,0.688793628 16.0733173,0 16.9230275,0 L18.4614583,0 C19.3111686,0 20,0.688793628 20,1.53845387 L20,3.07691882 C20,3.92657906 19.3111686,4.61538376 18.4614583,4.61538376 L16.9230275,4.61538376 C16.0733173,4.61538376 15.3845966,3.92657906 15.3845966,3.07691882 Z" id="Path" stroke="#191E3C"></path>
            <path d="M15.3845966,10.7691438 L15.3845966,9.23070105 C15.3845966,8.38104081 16.0733173,7.6922361 16.9230275,7.6922361 L18.4614583,7.6922361 C19.3111686,7.6922361 20,8.38104081 20,9.23070105 L20,10.7691438 C20,11.6188484 19.3111686,12.3076753 18.4614583,12.3076753 L16.9230275,12.3076753 C16.0733173,12.3076753 15.3845966,11.6188484 15.3845966,10.7691438 Z" id="Path" stroke="#191E3C"></path>
            <path d="M15.3845966,18.4615794 L15.3845966,16.9230479 C15.3845966,16.0733434 16.0733173,15.3846273 16.9230275,15.3846273 L18.4614583,15.3846273 C19.3111686,15.3846273 20,16.0733434 20,16.9230479 L20,18.4615794 C20,19.3112839 19.3111686,20 18.4614583,20 L16.9230275,20 C16.0733173,20 15.3845966,19.3112839 15.3845966,18.4615794 Z" id="Path" stroke="#191E3C"></path>
            <path d="M7.69228724,3.07691882 L7.69228724,1.53845387 C7.69228724,0.688793628 8.38108544,0 9.23076241,0 L10.7691933,0 C11.6189035,0 12.3076241,0.688793628 12.3076241,1.53845387 L12.3076241,3.07691882 C12.3076241,3.92657906 11.6189035,4.61538376 10.7691933,4.61538376 L9.23076241,4.61538376 C8.38108544,4.61538376 7.69228724,3.92657906 7.69228724,3.07691882 Z" id="Path" stroke="#191E3C"></path>
            <path d="M7.69228724,10.7691438 L7.69228724,9.23070105 C7.69228724,8.38104081 8.38108544,7.6922361 9.23076241,7.6922361 L10.7691933,7.6922361 C11.6189035,7.6922361 12.3076241,8.38104081 12.3076241,9.23070105 L12.3076241,10.7691438 C12.3076241,11.6188484 11.6189035,12.3076753 10.7691933,12.3076753 L9.23076241,12.3076753 C8.38108544,12.3076753 7.69228724,11.6188484 7.69228724,10.7691438 Z" id="Path" stroke="#17A4EA"></path>
            <path d="M7.69228724,18.4615794 L7.69228724,16.9230479 C7.69228724,16.0733434 8.38108544,15.3846273 9.23076241,15.3846273 L10.7691933,15.3846273 C11.6189035,15.3846273 12.3076241,16.0733434 12.3076241,16.9230479 L12.3076241,18.4615794 C12.3076241,19.3112839 11.6189035,20 10.7691933,20 L9.23076241,20 C8.38108544,20 7.69228724,19.3112839 7.69228724,18.4615794 Z" id="Path" stroke="#191E3C"></path>
            <path d="M0,3.07691882 L0,1.53845387 C0,0.688793628 0.688787127,0 1.53845302,0 L3.07690603,0 C3.92656084,0 4.61535905,0.688793628 4.61535905,1.53845387 L4.61535905,3.07691882 C4.61535905,3.92657906 3.92656084,4.61538376 3.07690603,4.61538376 L1.53845302,4.61538376 C0.688787127,4.61538376 0,3.92657906 0,3.07691882 Z" id="Path" stroke="#191E3C"></path>
            <path d="M0,10.7691438 L0,9.23070105 C0,8.38104081 0.688787127,7.6922361 1.53845302,7.6922361 L3.07690603,7.6922361 C3.92656084,7.6922361 4.61535905,8.38104081 4.61535905,9.23070105 L4.61535905,10.7691438 C4.61535905,11.6188484 3.92656084,12.3076753 3.07690603,12.3076753 L1.53845302,12.3076753 C0.688787127,12.3076753 0,11.6188484 0,10.7691438 Z" id="Path" stroke="#191E3C"></path>
            <path d="M0,18.4615794 L0,16.9230479 C0,16.0733434 0.688787127,15.3846273 1.53845302,15.3846273 L3.07690603,15.3846273 C3.92656084,15.3846273 4.61535905,16.0733434 4.61535905,16.9230479 L4.61535905,18.4615794 C4.61535905,19.3112839 3.92656084,20 3.07690603,20 L1.53845302,20 C0.688787127,20 0,19.3112839 0,18.4615794 Z" id="Path" stroke="#191E3C"></path>
        </g>
    </g>
</svg>