<?xml version="1.0" encoding="UTF-8"?>
<svg width="24px" height="24px" viewBox="0 0 24 24" version="1.1" xmlns="http://www.w3.org/2000/svg" xmlns:xlink="http://www.w3.org/1999/xlink">
    <title>fun/bell</title>
    <g id="fun/bell" stroke="none" stroke-width="1" fill="none" fill-rule="evenodd" stroke-linecap="round" stroke-linejoin="round">
        <g id="Group" transform="translate(3.5, 2)" stroke-width="2.41604822">
            <line x1="7.08336394" y1="19.4610248" x2="9.91666667" y2="19.4610248" id="Path" stroke="#17A4EA"></line>
            <path d="M14.7938681,6.64968176 C14.7938681,4.88607951 14.1306919,3.19471071 12.9503404,1.9476515 C11.7700909,0.70059228 10.1691837,0 8.50002041,0 C6.83077545,0 5.22991927,0.70059228 4.04960858,1.9476515 C2.86927748,3.19471071 2.20618296,4.88607951 2.20618296,6.64968176 L2.20618296,13.255049 C2.20618296,13.9164793 1.95753272,14.5507453 1.51490856,15.0182524 C1.0722946,15.4860829 0.625956654,15.7486716 0,15.7486716 L17,15.7486716 C16.3739617,15.7486716 15.9277972,15.4860829 15.4849996,15.0182524 C15.0425081,14.5507453 14.7938681,13.9164793 14.7938681,13.255049 L14.7938681,6.64968176 Z" id="Path" stroke="#191E3C"></path>
        </g>
    </g>
</svg>