<?xml version="1.0" encoding="UTF-8"?>
<svg width="24px" height="24px" viewBox="0 0 24 24" version="1.1" xmlns="http://www.w3.org/2000/svg" xmlns:xlink="http://www.w3.org/1999/xlink">
    <title>fun/calendar</title>
    <g id="fun/calendar" stroke="none" stroke-width="1" fill="none" fill-rule="evenodd" stroke-linecap="round" stroke-linejoin="round">
        <g id="Group" transform="translate(2, 2)" stroke-width="2.54372794">
            <path d="M1.53845557,2.30764458 C1.13043001,2.30764458 0.739123907,2.46974122 0.450605318,2.75824665 C0.16208673,3.04677424 0,3.43807753 0,3.84611123 L0,18.4614669 C0,18.8695338 0.16208673,19.2608703 0.450605318,19.5493868 C0.739123907,19.8377926 1.13043001,20 1.53845557,20 L18.4614558,20 C18.8695257,20 19.260865,19.8377926 19.5493836,19.5493868 C19.8377914,19.2608703 20,18.8695338 20,18.4614669 L20,3.84611123 C20,3.43807753 19.8377914,3.04677424 19.5493836,2.75824665 C19.260865,2.46974122 18.8695257,2.30764458 18.4614558,2.30764458 L15.384589,2.30764458" id="Path" stroke="#191E3C"></path>
            <line x1="4.61533348" y1="0" x2="4.61533348" y2="4.61538888" id="Path" stroke="#191E3C"></line>
            <line x1="15.3849214" y1="0" x2="15.3849214" y2="4.61538888" id="Path" stroke="#191E3C"></line>
            <line x1="4.61533348" y1="2.30764458" x2="12.3076113" y2="2.30764458" id="Path" stroke="#191E3C"></line>
            <path d="M4.61528916,9.61539996 C4.40287787,9.61539996 4.23067527,9.44324291 4.23067527,9.23082207 C4.23067527,9.01841232 4.40287787,8.84621095 4.61528916,8.84621095" id="Path" stroke="#17A4EA"></path>
            <path d="M4.61559939,9.61539996 C4.82802176,9.61539996 5.00021329,9.44324291 5.00021329,9.23082207 C5.00021329,9.01841232 4.82802176,8.84621095 4.61559939,8.84621095" id="Path" stroke="#17A4EA"></path>
            <path d="M10.0004598,9.61539996 C9.78805961,9.61539996 9.61587916,9.44324291 9.61587916,9.23082207 C9.61587916,9.01841232 9.78805961,8.84621095 10.0004598,8.84621095" id="Path" stroke="#17A4EA"></path>
            <path d="M10.0005706,9.61539996 C10.2129708,9.61539996 10.3851513,9.44324291 10.3851513,9.23082207 C10.3851513,9.01841232 10.2129708,8.84621095 10.0005706,8.84621095" id="Path" stroke="#17A4EA"></path>
            <path d="M4.61528916,15.0000443 C4.40287787,15.0000443 4.23067527,14.8278651 4.23067527,14.6154664 C4.23067527,14.4030678 4.40287787,14.2307778 4.61528916,14.2307778" id="Path" stroke="#17A4EA"></path>
            <path d="M4.61559939,15.0000443 C4.82802176,15.0000443 5.00021329,14.8278651 5.00021329,14.6154664 C5.00021329,14.4030678 4.82802176,14.2307778 4.61559939,14.2307778" id="Path" stroke="#17A4EA"></path>
            <path d="M10.0004598,15.0000443 C9.78805961,15.0000443 9.61587916,14.8278651 9.61587916,14.6154664 C9.61587916,14.4030678 9.78805961,14.2307778 10.0004598,14.2307778" id="Path" stroke="#17A4EA"></path>
            <path d="M10.0005706,15.0000443 C10.2129708,15.0000443 10.3851513,14.8278651 10.3851513,14.6154664 C10.3851513,14.4030678 10.2129708,14.2307778 10.0005706,14.2307778" id="Path" stroke="#17A4EA"></path>
            <path d="M15.384589,9.61539996 C15.172078,9.61539996 15.0000083,9.44324291 15.0000083,9.23082207 C15.0000083,9.01841232 15.172078,8.84621095 15.384589,8.84621095" id="Path" stroke="#17A4EA"></path>
            <path d="M15.384589,9.61539996 C15.5971,9.61539996 15.7692804,9.44324291 15.7692804,9.23082207 C15.7692804,9.01841232 15.5971,8.84621095 15.384589,8.84621095" id="Path" stroke="#17A4EA"></path>
        </g>
    </g>
</svg>