<?xml version="1.0" encoding="UTF-8"?>
<svg width="24px" height="24px" viewBox="0 0 24 24" version="1.1" xmlns="http://www.w3.org/2000/svg" xmlns:xlink="http://www.w3.org/1999/xlink">
    <title>fun/chat</title>
    <g id="fun/chat" stroke="none" stroke-width="1" fill="none" fill-rule="evenodd" stroke-linecap="round" stroke-linejoin="round">
        <g id="Group" transform="translate(2, 2)" stroke-width="3.05311011">
            <path d="M10.002981,10.3882728 C9.78863037,10.3882728 9.61486786,10.2144594 9.61486786,10.000046 C9.61486786,9.78563254 9.78863037,9.61181913 10.002981,9.61181913" id="Path" stroke="#17A4EA"></path>
            <path d="M10.003101,10.3881128 C10.2174383,10.3881128 10.3912141,10.2142994 10.3912141,9.99988597 C10.3912141,9.78547254 10.2174383,9.61165913 10.003101,9.61165913" id="Path" stroke="#17A4EA"></path>
            <path d="M5.73388297,10.3882728 C5.51953232,10.3882728 5.34576981,10.2144594 5.34576981,10.000046 C5.34576981,9.78563254 5.51953232,9.61181913 5.73388297,9.61181913" id="Path" stroke="#17A4EA"></path>
            <path d="M5.73384298,10.3881128 C5.94818029,10.3881128 6.1219428,10.2142994 6.1219428,9.99988597 C6.1219428,9.78547254 5.94818029,9.61165913 5.73384298,9.61165913" id="Path" stroke="#17A4EA"></path>
            <path d="M14.2721857,10.3882728 C14.0578484,10.3882728 13.8841659,10.2144594 13.8841659,10.000046 C13.8841659,9.78563254 14.0578484,9.61181913 14.2721857,9.61181913" id="Path" stroke="#17A4EA"></path>
            <path d="M14.2720524,10.3881128 C14.4863897,10.3881128 14.6600723,10.2142994 14.6600723,9.99988597 C14.6600723,9.78547254 14.4863897,9.61165913 14.2720524,9.61165913" id="Path" stroke="#17A4EA"></path>
            <path d="M9.99704942,0 C8.18871165,0.000561710139 6.41441726,0.491748586 4.86308432,1.42125565 C3.31177804,2.35073604 2.04154956,3.68374994 1.18770596,5.27825729 C0.333862353,6.87277797 -0.071619053,8.66911207 0.0144357779,10.4758995 C0.100503938,12.2826736 0.674895941,14.0322744 1.67642968,15.5384083 L0,20 L5.61371811,18.9845431 C6.96549608,19.6453434 8.44891554,19.9924102 9.95343551,20 C11.4579421,20.0073436 12.9447073,19.6750768 14.3029767,19.0276098 C15.6612461,18.3802762 16.8559633,17.4346758 17.7979545,16.2610753 C18.7399456,15.0877415 19.4050844,13.7166742 19.7436521,12.2502736 C20.0822197,10.783873 20.0854188,9.26001899 19.7532493,7.79219169 C19.4212131,6.32433774 18.7619392,4.95043048 17.8251465,3.77286998 C16.8882206,2.59529615 15.6977687,1.64442908 14.3422985,0.991175465 C12.9869616,0.337921854 11.5015294,-0.000878290474 9.99704942,0 Z" id="Path" stroke="#191E3C"></path>
        </g>
    </g>
</svg>