<?xml version="1.0" encoding="UTF-8"?>
<svg width="24px" height="24px" viewBox="0 0 24 24" version="1.1" xmlns="http://www.w3.org/2000/svg" xmlns:xlink="http://www.w3.org/1999/xlink">
    <title>fun/file-pdf</title>
    <g id="fun/file-pdf" stroke="none" stroke-width="1" fill="none" fill-rule="evenodd">
        <g id="Group" transform="translate(3.5, 2)">
            <path d="M17,18.4614703 C17,18.8695363 16.8370539,19.260872 16.5473348,19.5493878 C16.2575044,19.8377929 15.8643857,20 15.4545718,20 L1.5454505,20 C1.13555863,20 0.742473366,19.8377929 0.452642964,19.5493878 C0.162823692,19.260872 0,18.8695363 0,18.4614703 L0,1.53846324 C0,1.13043045 0.162823692,0.739116946 0.452642964,0.450601075 C0.742473366,0.162085203 1.13555863,0 1.5454505,0 L11.5909455,0 L17,5.38461027 L17,18.4614703 Z" id="Path" stroke="#191E3C" stroke-width="2.54372556" stroke-linecap="round" stroke-linejoin="round"></path>
            <path d="M3.86164507,12.9631599 C3.80931087,12.9631599 3.77442882,12.9284804 3.77442882,12.8764057 L3.77442882,8.99850424 C3.77442882,8.94642956 3.80931087,8.91163924 3.86164507,8.91163924 L5.11172233,8.91163924 C6.09432975,8.91163924 6.55948306,9.45576422 6.55948306,10.2428674 C6.55948306,11.0300814 6.09432975,11.5683342 5.11172233,11.5683342 L4.69309325,11.5683342 L4.69309325,12.8764057 C4.69309325,12.9284804 4.65820008,12.9631599 4.60587701,12.9631599 L3.86164507,12.9631599 Z M4.69309325,10.7579635 L5.08846021,10.7579635 C5.39662205,10.7579635 5.68152177,10.6595756 5.68152177,10.2428674 C5.68152177,9.82039776 5.39662205,9.72200986 5.08846021,9.72200986 L4.69309325,9.72200986 L4.69309325,10.7579635 Z M7.24003913,12.9631599 C7.18772719,12.9631599 7.15285627,12.9284804 7.15285627,12.8764057 L7.15285627,8.99850424 C7.15285627,8.94642956 7.18772719,8.91163924 7.24003913,8.91163924 L8.50175857,8.91163924 C9.85652649,8.91163924 10.5833285,9.8030026 10.5833285,10.937455 C10.5833285,12.0719074 9.85652649,12.9631599 8.50175857,12.9631599 L7.24003913,12.9631599 Z M8.07146505,12.1529001 L8.49018316,12.1529001 C9.25182273,12.1529001 9.64716743,11.7245582 9.64716743,10.937455 C9.64716743,10.150241 9.25182273,9.72200986 8.49018316,9.72200986 L8.07146505,9.72200986 L8.07146505,12.1529001 Z M11.288538,12.9631599 C11.2362261,12.9631599 11.2012772,12.9284804 11.2012772,12.8764057 L11.2012772,8.99850424 C11.2012772,8.94642956 11.2362261,8.91163924 11.288538,8.91163924 L13.3642089,8.91163924 C13.4165209,8.91163924 13.4514697,8.94642956 13.4514697,8.99850424 L13.4514697,9.63514487 C13.4514697,9.68721954 13.4165209,9.72200986 13.3642089,9.72200986 L12.1199639,9.72200986 L12.1199639,10.4859565 L13.2886349,10.4859565 C13.3409468,10.4859565 13.3757844,10.5207468 13.3757844,10.5728215 L13.3757844,11.2094621 C13.3757844,11.2615368 13.3409468,11.2963271 13.2886349,11.2963271 L12.1199639,11.2963271 L12.1199639,12.8764057 C12.1199639,12.9284804 12.0850151,12.9631599 12.0327031,12.9631599 L11.288538,12.9631599 Z" id="Shape" fill="#17A4EA" fill-rule="nonzero"></path>
        </g>
    </g>
</svg>