<?xml version="1.0" encoding="UTF-8"?>
<svg width="24px" height="24px" viewBox="0 0 24 24" version="1.1" xmlns="http://www.w3.org/2000/svg" xmlns:xlink="http://www.w3.org/1999/xlink">
    <title>fun/file-fundering</title>
    <g id="fun/file-fundering" stroke="none" stroke-width="1" fill="none" fill-rule="evenodd" stroke-linecap="round" stroke-linejoin="round">
        <g id="Group" transform="translate(3, 3)" stroke-width="2.57624946">
            <line x1="0" y1="4.15434375" x2="18" y2="4.15434375" id="Path" stroke="#17A4EA"></line>
            <line x1="13.1537341" y1="9.692325" x2="13.1537341" y2="0" id="Path" stroke="#17A4EA"></line>
            <path d="M18,9.692325 L18,16.61535 C18,16.98255 17.8539753,17.3347875 17.5944383,17.5944375 C17.3347887,17.8540875 16.9825519,18 16.6153526,18 L1.38461365,18 C1.01739184,18 0.665211253,17.8540875 0.40555049,17.5944375 C0.145878476,17.3347875 0,16.98255 0,16.61535 L0,1.38461625 C0,1.01739375 0.145878476,0.6652125 0.40555049,0.40555125 C0.665211253,0.14587875 1.01739184,0 1.38461365,0 L6.92306827,0 L6.92306827,9.692325 L18,9.692325 Z" id="Path" stroke="#191E3C"></path>
        </g>
    </g>
</svg>