<?xml version="1.0" encoding="UTF-8"?>
<svg width="24px" height="24px" viewBox="0 0 24 24" version="1.1" xmlns="http://www.w3.org/2000/svg" xmlns:xlink="http://www.w3.org/1999/xlink">
    <title>fun/fundering</title>
    <g id="fun/fundering" stroke="none" stroke-width="1" fill="none" fill-rule="evenodd" stroke-linecap="round" stroke-linejoin="round">
        <g id="Group" transform="translate(2, 2)" stroke-width="2.3867878">
            <path d="M7.30768886,11.9231142 L0.769228742,11.9231142 C0.344396947,11.9231142 0,12.2674576 0,12.6923515 L0,19.2307627 C0,19.6555512 0.344396947,20 0.769228742,20 L7.30768886,20 C7.73252066,20 8.07692815,19.6555512 8.07692815,19.2307627 L8.07692815,12.6923515 C8.07692815,12.2674576 7.73252066,11.9231142 7.30768886,11.9231142 Z" id="Path" stroke="#191E3C"></path>
            <path d="M19.2308661,11.9231142 L12.6923322,11.9231142 C12.2675426,11.9231142 11.9230929,12.2674576 11.9230929,12.6923515 L11.9230929,19.2307627 C11.9230929,19.6555512 12.2675426,20 12.6923322,20 L19.2308661,20 C19.6555503,20 20,19.6555512 20,19.2307627 L20,12.6923515 C20,12.2674576 19.6555503,11.9231142 19.2308661,11.9231142 Z" id="Path" stroke="#191E3C"></path>
            <path d="M13.2769583,0 L6.73844546,0 C6.31362421,0 5.96921672,0.344396039 5.96921672,0.769226714 L5.96921672,7.3076696 C5.96921672,7.73250027 6.31362421,8.07690686 6.73844546,8.07690686 L13.2769583,8.07690686 C13.7017479,8.07690686 14.0460922,7.73250027 14.0460922,7.3076696 L14.0460922,0.769226714 C14.0460922,0.344396039 13.7017479,0 13.2769583,0 Z" id="Path" stroke="#17A4EA"></path>
        </g>
    </g>
</svg>