<?xml version="1.0" encoding="UTF-8"?>
<svg width="24px" height="24px" viewBox="0 0 24 24" version="1.1" xmlns="http://www.w3.org/2000/svg" xmlns:xlink="http://www.w3.org/1999/xlink">
    <title>fun/image</title>
    <g id="fun/image" stroke="none" stroke-width="1" fill="none" fill-rule="evenodd" stroke-linecap="round" stroke-linejoin="round">
        <g id="Group" transform="translate(3, 5)" stroke-width="2.29">
            <path d="M12.49924,5.84861 C13.45414,5.84861 14.22824,5.07452 14.22824,4.11962 C14.22824,3.16472 13.45414,2.39063 12.49924,2.39063 C11.54434,2.39063 10.77024,3.16472 10.77024,4.11962 C10.77024,5.07452 11.54434,5.84861 12.49924,5.84861 Z" id="Path" stroke="#17A4EA"></path>
            <path d="M11.91724,13.8854 C11.48614,11.5889 10.25304,9.5204 8.43814,8.0488 C6.62322,6.5772 4.34448,5.79834 2.00853,5.85116 C1.33457,5.84935 0.66199,5.91213 0,6.03862" id="Path" stroke="#17A4EA"></path>
            <path d="M18.05074,9.6375 C16.95704,9.2681 15.81044,9.0801 14.65594,9.0807 C13.19484,9.0776 11.74844,9.3733 10.40574,9.9498" id="Path" stroke="#17A4EA"></path>
            <path d="M1.38853,13.8854 L16.66224,13.8854 C17.42914,13.8854 18.05084,13.2637 18.05084,12.4968 L18.05084,1.38854 C18.05084,0.62166 17.42914,0 16.66224,0 L1.38853,0 C0.62167,0 0,0.62166 0,1.38854 L0,12.4968 C0,13.2637 0.62167,13.8854 1.38853,13.8854 Z" id="Path" stroke="#191E3C"></path>
        </g>
    </g>
</svg>