<?xml version="1.0" encoding="UTF-8"?>
<svg width="24px" height="24px" viewBox="0 0 24 24" version="1.1" xmlns="http://www.w3.org/2000/svg" xmlns:xlink="http://www.w3.org/1999/xlink">
    <title>fun/info</title>
    <g id="fun/info" stroke="none" stroke-width="1" fill="none" fill-rule="evenodd" stroke-linecap="round" stroke-linejoin="round">
        <g id="Group" transform="translate(2, 2)" stroke-width="2.54372556">
            <path d="M10.0000166,20 C15.5228652,20 20,15.5229073 20,10 C20,4.47714808 15.5228652,0 10.0000166,0 C4.47714593,0 0,4.47714808 0,10 C0,15.5229073 4.47714593,20 10.0000166,20 Z" id="Path" stroke="#191E3C"></path>
            <line x1="7.6923111" y1="14.6154784" x2="12.3077221" y2="14.6154784" id="Path" stroke="#17A4EA"></line>
            <polyline id="Path" stroke="#17A4EA" points="10.000349 14.6154784 10.000349 9.23084594 8.46189344 9.23084594"></polyline>
            <path d="M10.0004598,5.7692981 C9.78805961,5.7692981 9.61587916,5.59710819 9.61587916,5.38468783 C9.61587916,5.17226746 9.78805961,5.00007756 10.0004598,5.00007756" id="Path" stroke="#17A4EA"></path>
            <path d="M10.0005706,5.7692981 C10.2129708,5.7692981 10.3851513,5.59710819 10.3851513,5.38468783 C10.3851513,5.17226746 10.2129708,5.00007756 10.0005706,5.00007756" id="Path" stroke="#17A4EA"></path>
        </g>
    </g>
</svg>