<?xml version="1.0" encoding="UTF-8"?>
<svg width="24px" height="24px" viewBox="0 0 24 24" version="1.1" xmlns="http://www.w3.org/2000/svg" xmlns:xlink="http://www.w3.org/1999/xlink">
    <title>fun/lock</title>
    <g id="fun/lock" stroke="none" stroke-width="1" fill="none" fill-rule="evenodd" stroke-linecap="round" stroke-linejoin="round">
        <g id="Group" transform="translate(4, 2)" stroke-width="2.54372612">
            <path d="M13.5000259,7.6922557 L1.5,7.6922557 C0.671580038,7.6922557 0,8.38105009 0,9.23071128 L0,18.4614669 C0,19.3111724 0.671580038,20 1.5,20 L13.5000259,20 C14.3283876,20 15,19.3111724 15,18.4614669 L15,9.23071128 C15,8.38105009 14.3283876,7.6922557 13.5000259,7.6922557 Z" id="Path" stroke="#191E3C"></path>
            <path d="M12.7499849,7.6923111 L12.7499849,5.3846222 C12.7499849,3.95653195 12.1968796,2.58692058 11.2123089,1.57712388 C10.2277382,0.567305008 8.89239941,0 7.50002161,0 C6.10757898,0 4.77221856,0.567305008 3.7876695,1.57712388 C2.80309883,2.58692058 2.24997191,3.95653195 2.24997191,5.3846222 L2.24997191,7.6923111" id="Path" stroke="#191E3C"></path>
            <path d="M7.50023766,14.6153556 C7.91441848,14.6153556 8.25017068,14.2708864 8.25017068,13.8460891 C8.25017068,13.4212917 7.91441848,13.0768225 7.50023766,13.0768225 C7.08594882,13.0768225 6.75019661,13.4212917 6.75019661,13.8460891 C6.75019661,14.2708864 7.08594882,14.6153556 7.50023766,14.6153556 Z" id="Path" stroke="#17A4EA"></path>
        </g>
    </g>
</svg>