<?xml version="1.0" encoding="UTF-8"?>
<svg width="24px" height="24px" viewBox="0 0 24 24" version="1.1" xmlns="http://www.w3.org/2000/svg" xmlns:xlink="http://www.w3.org/1999/xlink">
    <title>fun/map</title>
    <g id="fun/map" stroke="none" stroke-width="1" fill="none" fill-rule="evenodd" stroke-linecap="round" stroke-linejoin="round">
        <g id="Group" transform="translate(2, 2)" stroke-width="2.54372527">
            <path d="M20,12.5823582 C20,15.0549055 15.6923435,20 15.6923435,20 C15.6923435,20 11.5384765,15.0549055 11.5384765,12.5823582 C11.6922659,10.274677 13.5385152,8.46152738 15.846133,8.46152738 C18.000072,8.46152738 19.8462105,10.274677 20,12.5823582 Z" id="Path" stroke="#17A4EA"></path>
            <path d="M15.7696814,12.6374244 C15.5573899,12.6374244 15.3850969,12.4652457 15.3850969,12.2528478 C15.3850969,12.0404498 15.5573899,11.8681604 15.7696814,11.8681604" id="Path" stroke="#17A4EA"></path>
            <path d="M15.7696814,12.6374244 C15.9821945,12.6374244 16.1542659,12.4652457 16.1542659,12.2528478 C16.1542659,12.0404498 15.9821945,11.8681604 15.7696814,11.8681604" id="Path" stroke="#17A4EA"></path>
            <path d="M6.14920792,17.0414968 L1.88466343,18.0263719 C0.920565187,18.249074 0,17.516927 0,16.5273985 L0,2.64377304 C0,1.92747003 0.494353389,1.3059539 1.19228947,1.14476633 L6.14920792,0 L6.14920792,17.0414968 Z" id="Path" stroke="#191E3C"></path>
            <polyline id="Path" stroke="#191E3C" points="12.312853 6.15383507 12.312853 1.4201192 6.14941844 0 6.14941844 17.0414968 10.0001385 17.9287597"></polyline>
            <path d="M18.4615512,5.38453783 L18.4615512,1.93419541 C18.4615512,0.944722237 17.5409196,0.212530926 16.5769654,0.435188704 L12.3124098,1.42005272" id="Path" stroke="#191E3C"></path>
        </g>
    </g>
</svg>