<?xml version="1.0" encoding="UTF-8"?>
<svg width="24px" height="24px" viewBox="0 0 24 24" version="1.1" xmlns="http://www.w3.org/2000/svg" xmlns:xlink="http://www.w3.org/1999/xlink">
    <title>fun/pin</title>
    <g id="fun/pin" stroke="none" stroke-width="1" fill="none" fill-rule="evenodd">
        <g id="Group" transform="translate(3.5, 2)" stroke-width="2.5444448">
            <path d="M0,8.53031185 C0,14.1310196 5.65100151,18.3882478 7.73772882,19.7692497 C8.20258213,20.0769168 8.79745172,20.0769168 9.26230504,19.7692497 C11.3490323,18.3882478 17,14.1310196 17,8.53031185 C17,3.81914975 13.1944282,0 8.50001693,0 C3.80559434,0 0,3.81914975 0,8.53031185 Z" id="Path" stroke="#191E3C" stroke-linecap="round" stroke-linejoin="round"></path>
            <path d="M5.37373504,7.69588847 C5.37373504,8.10008903 5.4546002,8.50033403 5.61171448,8.87377899 C5.76884004,9.24723507 5.99912234,9.58656887 6.28944687,9.87234704 C6.57976011,10.1581252 6.92441609,10.3849033 7.30373179,10.5395702 C7.6830475,10.6942371 8.08960793,10.7739039 8.50017494,10.7739039 C8.91074194,10.7739039 9.31729109,10.6942371 9.69662936,10.5395702 C10.0759564,10.3849033 10.4206349,10.1581252 10.7109143,9.87234704 C11.0011937,9.58656887 11.2315437,9.24723507 11.3886467,8.87377899 C11.5457497,8.50033403 11.6266713,8.10008903 11.6266713,7.69588847 C11.6266713,6.87956511 11.297229,6.09667513 10.7109143,5.519441 C10.1245996,4.94220686 9.32935597,4.61792864 8.50017494,4.61792864 C7.6709939,4.61792864 6.87576157,4.94220686 6.28944687,5.519441 C5.70312088,6.09667513 5.37373504,6.87956511 5.37373504,7.69588847 Z" id="Path" stroke="#17A4EA"></path>
        </g>
    </g>
</svg>