<?xml version="1.0" encoding="UTF-8"?>
<svg width="24px" height="24px" viewBox="0 0 24 24" version="1.1" xmlns="http://www.w3.org/2000/svg" xmlns:xlink="http://www.w3.org/1999/xlink">
    <title>fun/report</title>
    <g id="fun/report" stroke="none" stroke-width="1" fill="none" fill-rule="evenodd" stroke-linecap="round" stroke-linejoin="round">
        <g id="Group" transform="translate(4.5, 2)" stroke-width="2.41089616">
            <polyline id="Path" stroke="#17A4EA" points="0 12.2595501 3.87817284 12.2595501 5.99999178 8.46154657 9.00002878 16.1538137 11.2843908 12.2595501 15 12.2595501"></polyline>
            <path d="M11.2500565,1.53850614 L13.4999815,1.53850614 C13.8978071,1.53850614 14.2793908,1.70059844 14.5606443,1.98910458 C14.8418977,2.27763181 15,2.66893488 15,3.07695957 L15,18.4615255 C15,18.8695502 14.8418977,19.2609165 14.5606443,19.5493805 C14.2793908,19.8378444 13.8978071,20 13.4999815,20 L1.5,20 C1.10216203,20 0.720640057,19.8378444 0.439335189,19.5493805 C0.158030321,19.2609165 0,18.8695502 0,18.4615255 L0,3.07695957 C0,2.66893488 0.158030321,2.27763181 0.439335189,1.98910458 C0.720640057,1.70059844 1.10216203,1.53850614 1.5,1.53850614 L3.74999486,1.53850614" id="Path" stroke="#191E3C"></path>
            <path d="M9.75003804,0 L5.24998458,0 C4.42156976,0 3.74998458,0.688792078 3.74998458,1.53846397 L3.74998458,2.30769069 C3.74998458,3.15735204 4.42156976,3.84614411 5.24998458,3.84614411 L9.75003804,3.84614411 C10.5783788,3.84614411 11.2499537,3.15735204 11.2499537,2.30769069 L11.2499537,1.53846397 C11.2499537,0.688792078 10.5783788,0 9.75003804,0 Z" id="Path" stroke="#191E3C"></path>
        </g>
    </g>
</svg>