<?xml version="1.0" encoding="UTF-8"?>
<svg width="24px" height="24px" viewBox="0 0 24 24" version="1.1" xmlns="http://www.w3.org/2000/svg" xmlns:xlink="http://www.w3.org/1999/xlink">
    <title>fun/reports</title>
    <g id="fun/reports" stroke="none" stroke-width="1" fill="none" fill-rule="evenodd" stroke-linecap="round" stroke-linejoin="round">
        <g id="Group" transform="translate(2, 2)" stroke-width="2.54372823">
            <path d="M1.53846836,0 L18.4615649,0 C18.8695244,0 19.2608642,0.162085383 19.5493831,0.450601574 C19.8377912,0.739117765 20,1.1304317 20,1.53845387 L20,16.9230479 C20,17.7390701 19.675804,18.5217423 19.0987662,19.0987747 C18.5217284,19.6758071 17.7390488,20 16.923019,20 L3.07692563,20 C2.26088469,20 1.47824945,19.6758071 0.901222715,19.0987747 C0.324173818,18.5217423 0,17.7390701 0,16.9230479 L0,1.53845387 C0,1.1304317 0.162086909,0.739117765 0.450605818,0.450601574 C0.739124726,0.162085383 1.13043127,0 1.53846836,0 Z" id="Path" stroke="#191E3C"></path>
            <line x1="0" y1="9.99998892" x2="20" y2="9.99998892" id="Path" stroke="#191E3C"></line>
            <path d="M10.0002271,14.9999391 C9.7878267,14.9999391 9.61564606,14.82776 9.61564606,14.6152508 C9.61564606,14.4028524 9.7878267,14.2306733 10.0002271,14.2306733" id="Path" stroke="#17A4EA"></path>
            <path d="M10.0002271,14.9999391 C10.2126276,14.9999391 10.384919,14.82776 10.384919,14.6152508 C10.384919,14.4028524 10.2126276,14.2306733 10.0002271,14.2306733" id="Path" stroke="#17A4EA"></path>
            <path d="M10.0002271,5.00000554 C9.7878267,5.00000554 9.61564606,4.82780436 9.61564606,4.61538376 C9.61564606,4.40297424 9.7878267,4.23077307 10.0002271,4.23077307" id="Path" stroke="#17A4EA"></path>
            <path d="M10.0002271,5.00000554 C10.2126276,5.00000554 10.384919,4.82780436 10.384919,4.61538376 C10.384919,4.40297424 10.2126276,4.23077307 10.0002271,4.23077307" id="Path" stroke="#17A4EA"></path>
        </g>
    </g>
</svg>