<?xml version="1.0" encoding="UTF-8"?>
<svg width="24px" height="24px" viewBox="0 0 24 24" version="1.1" xmlns="http://www.w3.org/2000/svg" xmlns:xlink="http://www.w3.org/1999/xlink">
    <title>fun/settings</title>
    <g id="fun/settings" stroke="none" stroke-width="1" fill="none" fill-rule="evenodd">
        <g id="Group" transform="translate(3, 2)">
            <path d="M8.42815463,20 C7.9992118,20 7.58329649,19.8663531 7.22587066,19.6123624 C6.87494367,19.3651258 6.60199272,19.0109512 6.44603069,18.596707 L5.94563056,17.2736432 L4.37945179,16.3514178 L3.00823799,16.5652939 C2.57932502,16.6254657 2.15691087,16.5586422 1.77348972,16.3648234 C1.3965674,16.1710046 1.07813457,15.8703502 0.870171938,15.4961183 L0.3177911,14.5005201 C0.103329635,14.1262882 0.00584715096,13.6918844 0.03184248,13.2441774 C0.0643366414,12.8032243 0.220308616,12.3822262 0.493249619,12.0347032 L1.33807791,10.9255154 L1.33807791,9.07451534 L0.46725429,7.96523542 C0.194313287,7.61108124 0.0383413123,7.19677569 0.00584715096,6.75575099 C-0.0266470104,6.31471605 0.0773343059,5.87369135 0.291795771,5.49280778 L0.837677777,4.50383058 C1.05213924,4.12294701 1.36407324,3.82224137 1.74749439,3.63513564 C2.12441671,3.4413578 2.55332969,3.37453432 2.969245,3.43467545 L4.3599553,3.65518268 L5.95212939,2.72635685 L6.45252953,1.40327251 C6.60849155,0.988966963 6.87494367,0.641495127 7.2323695,0.387565922 C7.58979532,0.133636717 7.9992118,0.0066823475 8.42815463,0 L9.56540052,0 C10.0008123,0 10.4102487,0.133636717 10.7676347,0.387565922 C11.1250207,0.641495127 11.3915425,0.988966963 11.5474946,1.40327251 L12.0478947,2.72635685 L13.6140835,3.64850033 L14.9853072,3.43467545 C15.4141505,3.37453432 15.8366244,3.4413578 16.2199858,3.63513564 C16.6034468,3.82892372 16.9153509,4.12962935 17.1233534,4.50383058 L17.6757043,5.49949013 C17.8901758,5.87369135 17.9876085,6.30803371 17.9616331,6.75575099 C17.9291887,7.20345804 17.7732366,7.61776358 17.5067148,7.96523542 L16.6619661,9.07451534 L16.6619661,10.9255154 L17.5327897,12.0347032 C17.805681,12.3888778 17.9616331,12.8032243 17.994177,13.2441774 C18.0266214,13.6918844 17.9227197,14.1262882 17.7016798,14.5071718 L17.1557978,15.4894666 C16.9413263,15.8703502 16.6294222,16.1710046 16.2525297,16.3581718 C15.8756373,16.5518882 15.4466944,16.6187117 15.0307891,16.5586422 L13.6465279,16.3381145 L12.0803391,17.2602375 L11.579939,18.5833014 C11.4239869,18.9976479 11.1575647,19.3450685 10.8001787,19.5990592 C10.4491621,19.8529474 10.0332567,19.9865944 9.59784492,19.9865944 L8.43462361,19.9865944 L8.42815463,20 Z M4.52892494,14.787769 C4.65889163,14.787769 4.78886827,14.8212319 4.89934842,14.8880553 L6.91392671,16.0841239 C7.06339986,16.1710046 7.17388,16.3046516 7.23886833,16.4717615 L7.83024216,18.0487136 C7.87573399,18.1757089 7.9602188,18.2759953 8.06420012,18.356122 C8.17467032,18.4295972 8.29817799,18.4697117 8.42158613,18.4697117 L9.57833847,18.4697117 C9.70831512,18.4697117 9.83182279,18.4295972 9.93582401,18.356122 C10.0462942,18.2826469 10.12432,18.1757089 10.1698019,18.0487136 L10.7676347,16.4717615 C10.8261541,16.3114056 10.9430932,16.1710046 11.0925763,16.0841239 L13.1071148,14.8880553 C13.2565979,14.8011746 13.4255875,14.767814 13.588108,14.7945229 L15.2191855,15.0484112 C15.3296557,15.0618168 15.4596324,15.0484112 15.5702021,14.9882394 C15.6806723,14.9281699 15.778105,14.8412891 15.8430934,14.7276995 L16.3954443,13.7386506 C16.4670012,13.6184093 16.4929766,13.4847624 16.4865076,13.3511154 C16.4799391,13.2174685 16.4279883,13.0904732 16.3499625,12.9902891 L15.3167178,11.6738769 C15.2127166,11.5402299 15.1541972,11.3664684 15.1541972,11.1928093 L15.1541972,8.80720097 C15.1541972,8.63345994 15.2127166,8.46640125 15.3102488,8.33276453 L16.3175181,7.00966996 C16.4020128,6.90276263 16.4474947,6.77579803 16.4604327,6.64215108 C16.4670012,6.50850413 16.4409262,6.38153953 16.3760374,6.26794985 L15.8171179,5.26560796 C15.7585986,5.1586904 15.6611659,5.06513754 15.5441272,5.01167876 C15.427188,4.95821998 15.3036803,4.93149059 15.1802722,4.95153763 L13.5620331,5.20546684 C13.3931431,5.23219623 13.2241535,5.19878449 13.0811394,5.11191397 L11.0666009,3.91579423 C10.9171178,3.82892372 10.8066476,3.69527677 10.7416593,3.52822831 L10.1437269,1.95121477 C10.0982451,1.82425017 10.0137503,1.72401495 9.90984858,1.64382678 C9.80584736,1.57032096 9.67587072,1.53022688 9.55236305,1.53022688 L8.42158613,1.53022688 C8.29160949,1.53022688 8.16820134,1.57032096 8.06420012,1.64382678 C7.9602188,1.71733261 7.87573399,1.82425017 7.83024216,1.95121477 L7.23886833,3.52822831 C7.17388,3.69527677 7.06339986,3.82892372 6.91392671,3.91579423 L4.86685426,5.11191397 C4.72387995,5.19878449 4.55492027,5.22551388 4.38595063,5.20546684 L2.75478354,4.95153763 C2.63781451,4.93818317 2.51433669,4.95153763 2.40385655,5.01167876 C2.28687756,5.07181989 2.19590386,5.1586904 2.13091554,5.27229031 L1.57852475,6.26126751 C1.5070376,6.38153953 1.48105222,6.51518648 1.4875411,6.64883343 C1.49403993,6.78248038 1.54603059,6.90944498 1.62401658,7.00966996 L2.65730105,8.32608218 C2.76128237,8.4597189 2.81977186,8.63345994 2.81977186,8.80720097 L2.81977186,11.1928093 C2.81977186,11.3664684 2.76128237,11.5268243 2.66379988,11.6672252 L1.65651074,12.9902891 C1.57202592,13.0972271 1.52653409,13.2241201 1.51353643,13.3577671 C1.5070376,13.491414 1.53303293,13.6184093 1.59802125,13.731999 L2.15691087,14.7343511 C2.21540036,14.8412891 2.31287289,14.9348215 2.42335304,14.9882394 C2.53383319,15.0417596 2.66379988,15.0684685 2.7872777,15.0484112 L4.40544712,14.7945229 C4.44444012,14.7945229 4.48343311,14.787769 4.51592727,14.787769 L4.52892494,14.787769 Z" id="Shape" stroke="#000000" stroke-width="0.502519229" fill="#191E3C" fill-rule="nonzero"></path>
            <path d="M6.2320768,10.00329 C6.2320768,10.5645867 6.3945476,11.1125802 6.69998277,11.5803445 C7.00541793,12.0481088 7.43433091,12.4089351 7.94122987,12.6294628 C8.4481587,12.8432365 9.00050968,12.9034084 9.53992271,12.7898187 C10.0793357,12.676229 10.5666984,12.4089351 10.9566283,12.0146459 C11.3399898,11.620459 11.6065116,11.1125802 11.7104133,10.5579351 C11.8144145,10.010044 11.7624268,9.43534164 11.5544612,8.91411853 C11.3465583,8.39290566 10.9890727,7.95188096 10.5341545,7.63781063 C10.0793357,7.32374029 9.54639168,7.15669184 9.00050968,7.15669184 C8.26613168,7.15669184 7.56430755,7.45738724 7.04441092,7.99196481 C6.5245143,8.52655261 6.2320768,9.24827684 6.2320768,10.00329 Z" id="Path" stroke="#17A4EA" stroke-width="2.30153807" stroke-linecap="round" stroke-linejoin="round"></path>
        </g>
    </g>
</svg>