<?xml version="1.0" encoding="UTF-8"?>
<svg width="24px" height="24px" viewBox="0 0 24 24" version="1.1" xmlns="http://www.w3.org/2000/svg" xmlns:xlink="http://www.w3.org/1999/xlink">
    <title>fun/tools</title>
    <g id="fun/tools" stroke="none" stroke-width="1" fill="none" fill-rule="evenodd" stroke-linecap="round" stroke-linejoin="round">
        <g id="Group" transform="translate(3, 3)" stroke-width="2.56675546">
            <path d="M16.7549501,0.175740705 C16.637039,0.096499974 16.5036284,0.0423635503 16.3632143,0.0168103503 C16.2228002,-0.00874284973 16.0783677,-0.0051292659 15.9393314,0.0274154333 L15.9393314,3.55200635 C15.9393314,4.41260042 15.2255501,5.11026899 14.345063,5.11026899 L13.4744496,5.11026899 C12.5940773,5.11026899 11.8802961,4.41261164 11.8802961,3.55200635 L11.8802961,0.138650971 C11.741719,0.0841105437 11.5925792,0.0599937993 11.4435543,0.0680065287 C11.2944145,0.0760080358 11.1488339,0.115948237 11.0172603,0.185010333 C10.2234556,0.702886275 9.59440505,1.42821784 9.20175074,2.27840883 C8.80898161,3.12859982 8.66833789,4.06948951 8.79577832,4.99397219 C8.92333357,5.91845487 9.31380647,6.78937347 9.9228799,7.50756764 C10.4933768,8.18034513 11.2341386,8.69379948 12.070079,8.99765475 L12.070079,17.1745665 C12.070079,18.1854722 12.9103822,19.0036908 13.9444867,19 C14.9690619,18.9961719 15.7993765,18.1860333 15.8047726,17.1845544 L15.8504675,8.92426084 C16.6372687,8.6047729 17.3311876,8.09741226 17.8678151,7.44698961 C18.4611594,6.72775176 18.8387735,5.86174854 18.9587512,4.94528981 C19.0786141,4.02883108 18.9360186,3.09783946 18.5470382,2.25579587 C18.157943,1.41377473 17.5376181,0.693740093 16.7549501,0.175740705 Z" id="Path" stroke="#191E3C"></path>
            <path d="M0.81303576,10.4030246 L5.59557678,10.4030246 C5.80274211,10.4030246 6.00144586,10.4834886 6.14793348,10.6266853 C6.29442109,10.769882 6.37672924,10.9641401 6.37672924,11.1665906 L6.37672924,15.7166762 C6.37672924,16.5433116 6.04080314,17.3360556 5.4428664,17.9204013 C4.84494114,18.5048592 4.03397221,18.833224 3.18836473,18.833224 C2.34274578,18.833224 1.53178833,18.5048592 0.933840108,17.9204013 C0.335914845,17.3360556 0,16.5433116 0,15.7166762 L0,11.1665906 C-8.01402547e-05,11.063682 0.0211254889,10.9617835 0.0623656729,10.8669549 C0.103594376,10.7722386 0.16399655,10.6867246 0.23994416,10.6153507 C0.315891771,10.5439769 0.405823386,10.4884264 0.504296955,10.4519539 C0.602782005,10.4154814 0.707811293,10.3988724 0.81303576,10.4030246 Z" id="Path" stroke="#17A4EA"></path>
            <line x1="3.18885842" y1="10.3414142" x2="3.18870917" y2="5.34169547" id="Path" stroke="#17A4EA"></line>
            <polygon id="Path" stroke="#17A4EA" points="3.96642878 5.33073127 2.41081735 5.33073127 0.855194434 3.81016437 1.63301737 0.00876395395 4.74422875 0.00876395395 5.52205169 3.81016437"></polygon>
        </g>
    </g>
</svg>