<?xml version="1.0" encoding="UTF-8"?>
<svg width="24px" height="24px" viewBox="0 0 24 24" version="1.1" xmlns="http://www.w3.org/2000/svg" xmlns:xlink="http://www.w3.org/1999/xlink">
    <title>fun/trash</title>
    <g id="fun/trash" stroke="none" stroke-width="1" fill="none" fill-rule="evenodd" stroke-linecap="round" stroke-linejoin="round">
        <g id="Group" transform="translate(3, 2)" stroke-width="2.54372471">
            <line x1="0" y1="4.61540763" x2="19" y2="4.61540763" id="Path" stroke="#191E3C"></line>
            <path d="M2.37497862,4.61540763 L16.6249758,4.61540763 L16.6249758,18.4614754 C16.6249758,18.8695401 16.4581494,19.2608744 16.1612143,19.5493893 C15.8643933,19.8377935 15.4616381,20 15.0416643,20 L3.95832431,20 C3.53838472,20 3.13566371,19.8377935 2.83872867,19.5493893 C2.54180503,19.2608744 2.37497862,18.8695401 2.37497862,18.4614754 L2.37497862,4.61540763 Z" id="Path" stroke="#191E3C"></path>
            <path d="M5.5417156,4.61536331 L5.5417156,3.84613424 C5.5417156,2.82608334 5.95875882,1.84779176 6.70108503,1.12650448 C7.44342264,0.405217201 8.45025366,0 9.5000171,0 C10.5498946,0 11.5566686,0.405217201 12.2990062,1.12650448 C13.0413438,1.84779176 13.4583528,2.82608334 13.4583528,3.84613424 L13.4583528,4.61536331" id="Path" stroke="#191E3C"></path>
            <line x1="7.12494726" y1="9.23297579" x2="7.12494726" y2="15.3891904" id="Path" stroke="#17A4EA"></line>
            <line x1="11.8749273" y1="9.23297579" x2="11.8749273" y2="15.3891904" id="Path" stroke="#17A4EA"></line>
        </g>
    </g>
</svg>