<?xml version="1.0" encoding="UTF-8"?>
<svg width="24px" height="24px" viewBox="0 0 24 24" version="1.1" xmlns="http://www.w3.org/2000/svg" xmlns:xlink="http://www.w3.org/1999/xlink">
    <title>fun/wrench</title>
    <g id="fun/wrench" stroke="none" stroke-width="1" fill="none" fill-rule="evenodd" stroke-linecap="round" stroke-linejoin="round">
        <g id="Group" transform="translate(2, 2)" stroke-width="2.22223667">
            <path d="M7.87586749,20 L7.87586749,14.5623031 C6.91698294,14.2057456 6.0672277,13.6031867 5.41280739,12.8137379 C4.71420642,11.9709554 4.26629953,10.9489497 4.12005669,9.86416591 C3.97381385,8.77932655 4.13513545,7.67522042 4.58562029,6.67755932 C5.03612735,5.679876 5.7577187,4.82874905 6.66824455,4.22102345 C6.81917658,4.14000078 6.98608743,4.09312274 7.15716522,4.08372269 C7.32822078,4.07432264 7.49926523,4.1026339 7.65817556,4.16664537 L7.65817556,8.46224701 C7.65817556,9.31187395 8.34697589,10.0006111 9.19664223,10.0006111 L10.7757338,10.0006111 C11.6254557,10.0006111 12.3141671,9.31187395 12.3141671,8.46224701 L12.3141671,4.03611131 C12.4736219,3.9979111 12.6392993,3.99366663 12.800532,4.02365569 C12.9616536,4.05363363 13.1147747,4.11718954 13.2497835,4.21014561 C14.1476196,4.81800454 14.8592214,5.66294257 15.3055838,6.65102584 C15.751835,7.63912022 15.9151789,8.73161518 15.7777256,9.80705448 C15.6401611,10.8825049 15.2070218,11.8987328 14.526422,12.7426263 C13.9109375,13.5059639 13.1148858,14.1013006 12.2123827,14.4761915 L12.1484897,20" id="Path" stroke="#17A4EA"></path>
            <path d="M0,1.53837521 L0,18.4604359 C0,19.3101073 0.688800328,19.9987778 1.53846667,19.9987778 L18.4615667,19.9987778 C19.3112886,19.9987778 20,19.3101073 20,18.4604359 L20,1.53837521 C20,0.688759382 19.3112886,0 18.4615667,0 L1.53846667,0 C0.688800328,0 0,0.688759382 0,1.53837521 Z" id="Path" stroke="#191E3C"></path>
        </g>
    </g>
</svg>